<svg id="_4f50e5a1-ae1c-45aa-8064-574acefae14f" data-name="4f50e5a1-ae1c-45aa-8064-574acefae14f" xmlns="http://www.w3.org/2000/svg" viewBox="0 0 137.53 137.68">
  <title>logo-bhic</title>
  <path d="M132.28,56a18,18,0,0,0-30,8h0l-.08.39-.07.28c-.62,2.62-3.37,12.44-10.87,19.94l-6.73,6.64C77.66,98.15,68.86,101,65.4,102a18,18,0,1,0,21,21A44.84,44.84,0,0,1,96,105l8.89-9a45,45,0,0,1,18.79-9.78l.29-.07.39-.08h0a18,18,0,0,0,8-30m-58,69.22a8,8,0,1,1,0-11.32,8,8,0,0,1,0,11.32ZM125.24,74.4a8,8,0,1,1,0-11.32,8,8,0,0,1,0,11.32Z" fill="#2f3451"/>
  <path d="M68.94,51a18,18,0,1,0,12.7,5.26A18,18,0,0,0,68.94,51M74.6,74.61a8,8,0,1,1,0-11.33,8,8,0,0,1,0,11.33Z" fill="#447bbe"/>
  <path d="M82.28,6a18,18,0,0,0-30,8h0l-.08.39-.07.28c-.62,2.62-3.37,12.44-10.87,19.94l-6.73,6.64C27.66,48.15,18.86,51,15.4,52a18,18,0,1,0,21,21A44.84,44.84,0,0,1,46,55l8.89-9A45,45,0,0,1,73.65,36.2l.29-.07.39-.08h0a18,18,0,0,0,8-30m-58,69.22a8,8,0,1,1,0-11.32,8,8,0,0,1,0,11.32ZM75.24,24.4a8,8,0,1,1,0-11.32,8,8,0,0,1,0,11.32Z" fill="#2f3451"/>
</svg>
